<svg width="172" height="33" viewBox="0 0 172 33" fill="none" xmlns="http://www.w3.org/2000/svg">
	<g fill="currentColor">
		<path d="M0 25.2844H10.4855C18.2081 25.2844 22.6353 20.6157 22.6353 12.5924C22.6353 5.53742 18.8405 0.972443 11.1179 0.972443H0V1.04161L2.23024 3.22035C2.49654 3.49701 0 0.592027 0 1.04161L7.22136 12.5924L0 25.2152C1.58361 24.6843 2.49654 22.7598 2.23024 23.0365L0 25.2152V25.2844ZM9.95286 24.5927L2.52982 12.5924L9.09526 1.6641L10.1859 1.6641C14.2802 1.6641 18.1905 5.19159 18.1905 12.5924C18.1905 20.0969 14.2802 24.5927 9.95286 24.5927Z"/>
		<path d="M40.2999 15.8943C40.3339 15.4862 40.3339 15.2482 40.3339 15.1462C40.3339 9.67113 36.4912 7.97081 32.8866 7.97081C28.3637 7.97081 24.351 10.4873 24.351 16.7785C24.351 22.7636 28.3977 25.3481 32.6825 25.3481C36.6613 25.3481 39.3138 23.3417 40.1979 19.0569H40.1299C39.0077 21.3013 37.0013 22.1855 34.9609 22.1855C32.3424 22.1855 30.098 20.3831 30.098 15.9623V15.8943H40.2999ZM32.8185 8.61693C34.2128 8.61693 35.131 9.80715 35.131 14.262C35.131 14.398 35.131 14.8401 35.097 15.2822H30.098C30.166 10.3513 31.1182 8.61693 32.8185 8.61693Z"/>
		<path d="M57.9009 15.8943C57.9349 15.4862 57.9349 15.2482 57.9349 15.1462C57.9349 9.67113 54.0922 7.97081 50.4875 7.97081C45.9647 7.97081 41.9519 10.4873 41.9519 16.7785C41.9519 22.7636 45.9987 25.3481 50.2835 25.3481C54.2622 25.3481 56.9147 23.3417 57.7989 19.0569H57.7309C56.6087 21.3013 54.6023 22.1855 52.5619 22.1855C49.9434 22.1855 47.699 20.3831 47.699 15.9623V15.8943H57.9009ZM50.4195 8.61693C51.8138 8.61693 52.7319 9.80715 52.7319 14.262C52.7319 14.398 52.7319 14.8401 52.6979 15.2822H47.699C47.767 10.3513 48.7192 8.61693 50.4195 8.61693Z"/>
		<path d="M60.6182 30.381C60.6182 30.8231 60.5842 30.9251 60.3122 31.1972L58.6459 32.7615V32.8295H69.1878V32.7615L66.6714 31.0271C66.1953 30.7211 66.1613 30.619 66.1613 30.177V22.7636C66.7734 24.3619 68.2016 25.3481 70.6501 25.3481C74.7649 25.3481 77.8595 21.7774 77.8595 16.3024C77.8595 11.1674 75.207 7.97081 71.4322 7.97081C69.1538 7.97081 67.3175 9.16103 66.1613 11.8475V8.24286H58.6459V8.31087L60.3122 10.0112C60.5842 10.3172 60.6182 10.4193 60.6182 10.8613V30.381ZM68.7117 10.6913C70.6841 10.6913 71.9764 12.4256 71.9764 16.5744C71.9764 21.5393 70.106 23.3757 68.3717 23.3757C67.4535 23.3757 66.6374 23.0356 66.1613 22.5255V12.2896C66.7734 11.3714 67.6575 10.6913 68.7117 10.6913Z"/>
		<path d="M99.1714 1.61161C96.3828 0.999502 93.7643 0.829468 91.3839 0.829468C83.7665 0.829468 79.5157 5.72639 79.5157 13.1398C79.5157 20.8252 83.6304 25.4161 90.0236 25.4161C91.894 25.4161 93.1182 25.076 94.4785 24.4979L99.6474 25.4161V17.6966C99.6474 17.1525 99.6815 17.0845 99.9535 16.7445L101.858 14.568V14.5H91.2819V14.568L93.1862 16.7445C93.4583 17.0845 93.4923 17.1525 93.4923 17.6966V23.7498C93.4923 24.0558 93.4583 24.1578 93.1862 24.2939C92.6761 24.4979 92.098 24.5999 91.4859 24.5999C88.1873 24.5999 86.555 21.5053 86.555 12.7657C86.555 5.96443 87.9833 1.47559 92.166 1.47559H92.7442C93.3563 1.47559 93.5263 1.57761 93.7984 2.01969L99.1033 9.94318H99.1714V1.61161Z"/>
		<path d="M116.774 9.09302C116.264 8.41289 115.481 7.97081 114.461 7.97081C112.081 7.97081 110.652 10.1812 110.074 12.5957V8.24286H102.525V8.31087L104.191 10.0112C104.463 10.3172 104.497 10.4193 104.497 10.8613V22.6276C104.497 23.0696 104.497 23.1717 104.191 23.4437L102.525 25.008V25.076H113.917V25.008L110.584 23.0696C110.108 22.7636 110.074 22.5935 110.074 22.2195V13.0378C110.584 12.0856 110.959 11.4735 111.537 11.0654C111.775 10.8954 111.979 11.0314 112.149 11.2354L114.835 14.432H114.903L116.774 9.09302Z"/>
		<path d="M132.854 15.8943C132.888 15.4862 132.888 15.2482 132.888 15.1462C132.888 9.67113 129.046 7.97081 125.441 7.97081C120.918 7.97081 116.905 10.4873 116.905 16.7785C116.905 22.7636 120.952 25.3481 125.237 25.3481C129.216 25.3481 131.868 23.3417 132.752 19.0569H132.684C131.562 21.3013 129.556 22.1855 127.515 22.1855C124.897 22.1855 122.652 20.3831 122.652 15.9623V15.8943H132.854ZM125.373 8.61693C126.767 8.61693 127.685 9.80715 127.685 14.262C127.685 14.398 127.685 14.8401 127.651 15.2822H122.652C122.72 10.3513 123.673 8.61693 125.373 8.61693Z"/>
		<path d="M150.455 15.8943C150.489 15.4862 150.489 15.2482 150.489 15.1462C150.489 9.67113 146.647 7.97081 143.042 7.97081C138.519 7.97081 134.506 10.4873 134.506 16.7785C134.506 22.7636 138.553 25.3481 142.838 25.3481C146.817 25.3481 149.469 23.3417 150.353 19.0569H150.285C149.163 21.3013 147.157 22.1855 145.116 22.1855C142.498 22.1855 140.253 20.3831 140.253 15.9623V15.8943H150.455ZM142.974 8.61693C144.368 8.61693 145.286 9.80715 145.286 14.262C145.286 14.398 145.286 14.8401 145.252 15.2822H140.253C140.321 10.3513 141.274 8.61693 142.974 8.61693Z"/>
		<path d="M169.87 15.1462C169.87 10.4533 167.965 7.97081 164.565 7.97081C161.81 7.97081 160.008 9.46709 159.158 11.8475V8.24286H151.608V8.31087L153.275 10.0112C153.547 10.3172 153.581 10.4193 153.581 10.8613V22.6276C153.581 23.0696 153.581 23.1717 153.275 23.4437L151.608 25.008V25.076H161.13V25.008L159.464 23.4437C159.158 23.1717 159.158 23.0696 159.158 22.6276V12.2896C159.77 11.4055 160.586 10.7933 161.674 10.7933C163.783 10.7933 164.259 12.8337 164.259 15.9283C164.259 17.5606 164.157 22.1515 164.157 22.6616C164.157 23.0356 164.123 23.1717 163.851 23.4437L162.218 25.008V25.076H171.774V25.008L170.074 23.4437C169.802 23.1717 169.768 23.0696 169.768 22.6276C169.802 19.9411 169.87 17.2545 169.87 15.1462Z"/>
	</g>
</svg>
